<svg width="24" height="28" viewBox="0 0 24 28" fill="none" xmlns="http://www.w3.org/2000/svg">
<path d="M16 23.438C15.844 22.532 15.25 19.407 13.812 15.657C13.796 15.657 13.765 15.673 13.749 15.673C13.749 15.673 7.671 17.798 5.702 22.079C5.608 22.001 5.468 21.907 5.468 21.907C7.249 23.36 9.515 24.251 11.999 24.251C13.421 24.251 14.765 23.954 15.999 23.439L16 23.438ZM13.109 13.953C12.859 13.375 12.578 12.797 12.281 12.219C7 13.797 1.937 13.672 1.765 13.672C1.749 13.781 1.749 13.891 1.749 14C1.749 16.625 2.749 19.031 4.374 20.844C7.171 15.86 12.702 14.078 12.702 14.078C12.843 14.031 12.983 14 13.108 13.953H13.109ZM11.438 10.641C9.657 7.485 7.766 4.922 7.625 4.735C4.766 6.079 2.641 8.719 1.969 11.891C2.235 11.891 6.516 11.938 11.438 10.641V10.641ZM22.125 15.625C21.906 15.562 19.047 14.656 15.734 15.172C17.078 18.875 17.625 21.891 17.734 22.5C20.031 20.953 21.656 18.484 22.125 15.625ZM9.547 4.047C9.531 4.047 9.531 4.047 9.516 4.063C9.516 4.063 9.532 4.047 9.547 4.047ZM18.766 6.312C16.969 4.718 14.594 3.75 12 3.75C11.172 3.75 10.359 3.859 9.578 4.047C9.734 4.25 11.672 6.797 13.422 10.016C17.281 8.579 18.735 6.36 18.766 6.313V6.312ZM22.25 13.891C22.219 11.469 21.359 9.235 19.922 7.485C19.891 7.516 18.25 9.891 14.203 11.547C14.437 12.031 14.672 12.531 14.891 13.031C14.969 13.203 15.032 13.39 15.11 13.562C18.641 13.109 22.126 13.875 22.251 13.89L22.25 13.891ZM24 14C24 20.625 18.625 26 12 26C5.375 26 0 20.625 0 14C0 7.375 5.375 2 12 2C18.625 2 24 7.375 24 14Z" fill="white"/>
</svg>
