<svg width="24" height="24" viewBox="0 0 24 24" fill="none" xmlns="http://www.w3.org/2000/svg">
<path d="M17 3V5H15C14.448 5 13.947 5.225 13.586 5.586C13.225 5.947 13 6.448 13 7V10C13 10.552 13.448 11 14 11H16.719L16.219 13H14C13.448 13 13 13.448 13 14V21H11V14C11 13.448 10.552 13 10 13H8V11H10C10.552 11 11 10.552 11 10V7C11 5.895 11.447 4.897 12.172 4.172C12.897 3.447 13.895 3 15 3H17ZM18 1H15C13.343 1 11.842 1.673 10.757 2.757C9.672 3.841 9 5.343 9 7V9H7C6.448 9 6 9.448 6 10V14C6 14.552 6.448 15 7 15H9V22C9 22.552 9.448 23 10 23H14C14.552 23 15 22.552 15 22V15H17C17.466 15 17.858 14.681 17.97 14.243L18.97 10.243C19.104 9.707 18.778 9.164 18.242 9.03C18.159 9.009 18.075 8.999 18 9H15V7H18C18.552 7 19 6.552 19 6V2C19 1.448 18.552 1 18 1V1Z" fill="white"/>
</svg>
