<svg width="24" height="24" viewBox="0 0 24 24" fill="none" xmlns="http://www.w3.org/2000/svg">
<path d="M7 1C5.343 1 3.842 1.673 2.757 2.757C1.672 3.841 1 5.343 1 7V17C1 18.657 1.673 20.158 2.757 21.243C3.841 22.328 5.343 23 7 23H17C18.657 23 20.158 22.327 21.243 21.243C22.328 20.159 23 18.657 23 17V7C23 5.343 22.327 3.842 21.243 2.757C20.159 1.672 18.657 1 17 1H7ZM7 3H17C18.105 3 19.103 3.447 19.828 4.172C20.553 4.897 21 5.895 21 7V17C21 18.105 20.553 19.103 19.828 19.828C19.103 20.553 18.105 21 17 21H7C5.895 21 4.897 20.553 4.172 19.828C3.447 19.103 3 18.105 3 17V7C3 5.895 3.447 4.897 4.172 4.172C4.897 3.447 5.895 3 7 3V3ZM16.989 11.223C16.839 10.251 16.418 9.366 15.795 8.656C15.041 7.795 13.991 7.191 12.786 7.012C12.322 6.938 11.816 6.935 11.309 7.01C9.943 7.212 8.788 7.951 8.027 8.977C7.266 10.003 6.894 11.324 7.097 12.689C7.3 14.054 8.038 15.21 9.064 15.971C10.09 16.732 11.411 17.104 12.776 16.901C14.141 16.698 15.297 15.96 16.058 14.934C16.819 13.908 17.191 12.587 16.988 11.222L16.989 11.223ZM15.011 11.517C15.133 12.337 14.911 13.126 14.453 13.744C13.995 14.362 13.303 14.803 12.484 14.924C11.665 15.045 10.875 14.824 10.257 14.366C9.639 13.908 9.198 13.216 9.077 12.397C8.956 11.578 9.177 10.788 9.635 10.17C10.093 9.552 10.785 9.111 11.604 8.99C11.917 8.944 12.219 8.948 12.474 8.988C13.214 9.098 13.84 9.458 14.292 9.974C14.667 10.402 14.922 10.937 15.012 11.517H15.011ZM17.5 7.5C18.052 7.5 18.5 7.052 18.5 6.5C18.5 5.948 18.052 5.5 17.5 5.5C16.948 5.5 16.5 5.948 16.5 6.5C16.5 7.052 16.948 7.5 17.5 7.5Z" fill="white"/>
</svg>
